<svg width="512" height="512" viewBox="0 0 512 512" fill="none" xmlns="http://www.w3.org/2000/svg">
<path d="M449.732 224.291L256 367.08L62.2679 224.291L239.779 46.781C248.738 37.822 263.263 37.822 272.222 46.781L449.732 224.291Z" fill="#DD3142"/>
<path d="M114.699 86.763H397.301V417.569H114.699V86.763Z" fill="url(#paint0_linear_5650_20)"/>
<path d="M449.732 348.115V471.938H62.2679V348.115" fill="url(#paint1_linear_5650_20)"/>
<path d="M62.2679 224.291L229.499 348.115L62.2679 471.938V224.291ZM449.732 224.291L282.501 348.115L449.732 471.938V224.291ZM298.949 290.894C307.629 290.894 307.643 277.406 298.949 277.406H160.048C151.369 277.406 151.355 290.894 160.048 290.894H298.949ZM353.17 139.198C361.85 139.198 361.863 125.709 353.17 125.709H160.048C151.369 125.709 151.355 139.198 160.048 139.198H353.17ZM353.17 177.579C361.85 177.579 361.863 164.09 353.17 164.09H160.048C151.369 164.09 151.355 177.579 160.048 177.579H353.17ZM353.17 215.046C361.85 215.046 361.863 201.558 353.17 201.558H160.048C151.369 201.558 151.355 215.046 160.048 215.046H353.17ZM353.17 252.513C361.85 252.513 361.863 239.025 353.17 239.025H160.048C151.369 239.025 151.355 252.513 160.048 252.513H353.17Z" fill="white"/>
<defs>
<linearGradient id="paint0_linear_5650_20" x1="102.648" y1="405.518" x2="409.352" y2="98.814" gradientUnits="userSpaceOnUse">
<stop stop-color="#0C9696"/>
<stop offset="1" stop-color="#39F2F8"/>
</linearGradient>
<linearGradient id="paint1_linear_5650_20" x1="256" y1="471.938" x2="256" y2="348.115" gradientUnits="userSpaceOnUse">
<stop stop-color="white"/>
<stop offset="0.328" stop-color="#FCFCFC"/>
<stop offset="0.53" stop-color="#F4F4F4"/>
<stop offset="0.698" stop-color="#E5E5E5"/>
<stop offset="0.848" stop-color="#D1D1D1"/>
<stop offset="0.984" stop-color="#B7B7B7"/>
<stop offset="1" stop-color="#B3B3B3"/>
</linearGradient>
</defs>
</svg>
